<?xml version="1.0" encoding="utf-8"?>
<svg version="1.1" xmlns:xlink="http://www.w3.org/1999/xlink" width="93px" height="63px" xmlns="http://www.w3.org/2000/svg">
  <defs>
    <filter x="1326px" y="138px" width="93px" height="63px" filterUnits="userSpaceOnUse" id="filter20">
      <feOffset dx="0" dy="0" in="SourceAlpha" result="shadowOffsetInner" />
      <feGaussianBlur stdDeviation="2.5" in="shadowOffsetInner" result="shadowGaussian" />
      <feComposite in2="shadowGaussian" operator="atop" in="SourceAlpha" result="shadowComposite" />
      <feColorMatrix type="matrix" values="0 0 0 0 0  0 0 0 0 0  0 0 0 0 0  0 0 0 0.349019607843137 0  " in="shadowComposite" />
    </filter>
    <g id="widget21">
      <path d="M 1331 187.251177982437  C 1331 187.251177982437  1331 148  1331 148  C 1331 145.238576250846  1333.23857625085 143  1336 143  C 1336 143  1409 143  1409 143  C 1411.76142374915 143  1414 145.238576250846  1414 148  C 1414 148  1414 187.251177982437  1414 187.251177982437  C 1414 190.012601731591  1411.76142374915 192.251177982437  1409 192.251177982437  C 1409 192.251177982437  1362.91844660194 192.251177982437  1362.91844660194 192.251177982437  C 1362.91844660194 192.251177982437  1353.8 195.8675  1353.8 195.8675  C 1353.8 195.8675  1342.91844660194 192.251177982437  1342.91844660194 192.251177982437  C 1342.91844660194 192.251177982437  1336 192.251177982437  1336 192.251177982437  C 1333.23857625085 192.251177982437  1331 190.012601731591  1331 187.251177982437  Z " fill-rule="nonzero" fill="#ffffff" stroke="none" />
    </g>
  </defs>
  <g transform="matrix(1 0 0 1 -1326 -138 )">
    <use xlink:href="#widget21" filter="url(#filter20)" />
    <use xlink:href="#widget21" />
  </g>
</svg>