<?xml version="1.0" encoding="utf-8"?>
<svg version="1.1" xmlns:xlink="http://www.w3.org/1999/xlink" width="120px" height="120px" xmlns="http://www.w3.org/2000/svg">
  <g transform="matrix(1 0 0 1 -140 -249 )">
    <path d="M 141 254  A 4 4 0 0 1 145 250 L 255 250  A 4 4 0 0 1 259 254 L 259 364  A 4 4 0 0 1 255 368 L 145 368  A 4 4 0 0 1 141 364 L 141 254  Z " fill-rule="nonzero" fill="#fbfdff" stroke="none" />
    <path d="M 140.5 254  A 4.5 4.5 0 0 1 145 249.5 L 255 249.5  A 4.5 4.5 0 0 1 259.5 254 L 259.5 364  A 4.5 4.5 0 0 1 255 368.5 L 145 368.5  A 4.5 4.5 0 0 1 140.5 364 L 140.5 254  Z " stroke-width="1" stroke-dasharray="3,1" stroke="#027db4" fill="none" stroke-opacity="0.309803921568627" stroke-dashoffset="0.5" />
  </g>
</svg>